<svg xmlns="http://www.w3.org/2000/svg" viewBox="0 0 24 24" fill="#1ED760">
  <path d="M12 0C5.373 0 0 5.373 0 12s5.373 12 12 12 12-5.373 12-12S18.627 0 12 0zm5.501 17.311c-.218.358-.684.473-1.042.254-2.859-1.747-6.458-2.141-10.697-1.173-.41.094-.821-.163-.915-.573-.094-.41.163-.821.573-.915 4.633-1.06 8.624-.606 11.827 1.352.358.219.473.684.254 1.055zm1.468-3.258c-.274.445-.856.589-1.3.315-3.272-2.012-8.259-2.593-12.127-1.417-.501.152-1.03-.131-1.182-.632-.152-.501.131-1.03.632-1.182 4.417-1.34 9.914-.693 13.663 1.611.445.274.589.856.314 1.305zm.131-3.419c-3.923-2.33-10.392-2.545-14.153-1.403-.601.182-1.238-.166-1.421-.767-.182-.601.166-1.238.767-1.421 4.312-1.309 11.455-1.052 15.98 1.631.539.32.716 1.018.397 1.557-.32.539-1.018.717-1.57.398l-.001.005z"/>
</svg>
